<svg width="42" height="42" viewBox="0 0 42 42" fill="none" xmlns="http://www.w3.org/2000/svg">
<path d="M40.7695 0.0820312H25.9219C23.9115 0.0820312 22.1233 1.05148 21 2.54723C19.8766 1.05148 18.0885 0.0820312 16.0781 0.0820312H1.23047C0.550922 0.0820312 0 0.632953 0 1.3125V35.7656C0 36.4452 0.550922 36.9961 1.23047 36.9961H31.0128L31.9195 39.4871C32.2567 40.4137 32.9346 41.1534 33.8283 41.5702C34.3246 41.8016 34.8544 41.918 35.3861 41.918C35.8118 41.918 36.2389 41.8433 36.6509 41.6935C38.5522 41.0014 39.5408 38.8999 38.8685 36.9961H40.7695C41.4491 36.9961 42 36.4452 42 35.7656V1.3125C42 0.632953 41.4491 0.0820312 40.7695 0.0820312ZM25.9219 2.54297H39.5391V29.6133H36.1824L35.0798 26.584C37.5473 24.1817 38.5266 20.4639 37.2744 17.0236C37.2744 17.0236 37.2744 17.0236 37.2744 17.0235C36.45 14.7587 34.793 12.9504 32.6086 11.9318C30.424 10.9132 27.9737 10.8063 25.709 11.6306C24.3657 12.1195 23.1831 12.9013 22.2306 13.9123V6.23438C22.2305 4.19893 23.8864 2.54297 25.9219 2.54297ZM22.2305 26.307C23.0031 27.1251 23.9311 27.798 24.9816 28.2879C25.9937 28.7597 27.0627 29.0353 28.1439 29.1139L28.3257 29.6133H25.9219C24.5381 29.6133 23.2594 30.0727 22.2305 30.8466V26.307ZM26.0217 26.0575C24.433 25.3167 23.2279 24.0015 22.6284 22.3543C22.0288 20.7071 22.1067 18.925 22.8475 17.3363C23.5883 15.7477 24.9034 14.5425 26.5507 13.9431C27.2891 13.6744 28.0449 13.5469 28.7887 13.5469C31.4701 13.5469 33.993 15.2033 34.9619 17.8653C36.1995 21.2656 34.44 25.0389 31.0396 26.2765C29.3924 26.8761 27.6102 26.7983 26.0217 26.0575ZM2.46094 2.54297H16.0781C18.1136 2.54297 19.7695 4.19893 19.7695 6.23438V30.8466C18.7406 30.0727 17.4619 29.6133 16.0781 29.6133H2.46094V2.54297ZM2.46094 32.0742H16.0781C17.6822 32.0742 19.05 33.103 19.5579 34.5352H2.46094V32.0742ZM22.4421 34.5352C22.95 33.103 24.3178 32.0742 25.9219 32.0742H29.2214L30.1171 34.5352H22.4421ZM35.8091 39.3808C35.5005 39.4933 35.1663 39.4786 34.8683 39.3398C34.5704 39.2008 34.3444 38.9543 34.2321 38.6454L30.6964 28.9315C31.0953 28.8446 31.4911 28.7311 31.8812 28.5891C32.2734 28.4464 32.6493 28.2786 33.0087 28.0891L36.5446 37.8038C36.7767 38.4413 36.4467 39.1488 35.8091 39.3808ZM37.9738 34.5352L37.0781 32.0742H39.5391V34.5352H37.9738Z" fill="#8C864F"/>
<path d="M6.15234 7.46484H16.0781C16.7577 7.46484 17.3086 6.91392 17.3086 6.23438C17.3086 5.55483 16.7577 5.00391 16.0781 5.00391H6.15234C5.4728 5.00391 4.92188 5.55483 4.92188 6.23438C4.92188 6.91392 5.4728 7.46484 6.15234 7.46484Z" fill="#8C864F"/>
<path d="M6.15234 12.3867H16.0781C16.7577 12.3867 17.3086 11.8358 17.3086 11.1562C17.3086 10.4767 16.7577 9.92578 16.0781 9.92578H6.15234C5.4728 9.92578 4.92188 10.4767 4.92188 11.1562C4.92188 11.8358 5.4728 12.3867 6.15234 12.3867Z" fill="#8C864F"/>
<path d="M6.15234 17.3086H16.0781C16.7577 17.3086 17.3086 16.7577 17.3086 16.0781C17.3086 15.3986 16.7577 14.8477 16.0781 14.8477H6.15234C5.4728 14.8477 4.92188 15.3986 4.92188 16.0781C4.92188 16.7577 5.4728 17.3086 6.15234 17.3086Z" fill="#8C864F"/>
<path d="M6.15234 22.2305H16.0781C16.7577 22.2305 17.3086 21.6795 17.3086 21C17.3086 20.3205 16.7577 19.7695 16.0781 19.7695H6.15234C5.4728 19.7695 4.92188 20.3205 4.92188 21C4.92188 21.6795 5.4728 22.2305 6.15234 22.2305Z" fill="#8C864F"/>
<path d="M17.3086 25.9219C17.3086 25.2423 16.7577 24.6914 16.0781 24.6914H6.15234C5.4728 24.6914 4.92188 25.2423 4.92188 25.9219C4.92188 26.6014 5.4728 27.1523 6.15234 27.1523H16.0781C16.7577 27.1523 17.3086 26.6014 17.3086 25.9219Z" fill="#8C864F"/>
<path d="M25.9219 7.46484H35.8477C36.5272 7.46484 37.0781 6.91392 37.0781 6.23438C37.0781 5.55483 36.5272 5.00391 35.8477 5.00391H25.9219C25.2423 5.00391 24.6914 5.55483 24.6914 6.23438C24.6914 6.91392 25.2423 7.46484 25.9219 7.46484Z" fill="#8C864F"/>
</svg>
