<svg width="42" height="42" viewBox="0 0 42 42" fill="none" xmlns="http://www.w3.org/2000/svg">
<path d="M14.0255 17.7305C14.957 17.7305 15.713 16.9745 15.713 16.043V9.46172C15.713 6.51956 18.1067 4.125 21.0489 4.125C23.991 4.125 26.3856 6.51956 26.3856 9.46172V16.043C26.3856 16.9745 27.1408 17.7305 28.0731 17.7305C29.0046 17.7305 29.7606 16.9745 29.7606 16.043V9.46172C29.7614 4.65825 25.8532 0.75 21.0489 0.75C16.2463 0.75 12.338 4.65825 12.338 9.46172V16.043C12.338 16.9745 13.094 17.7305 14.0255 17.7305Z" fill="#0D4F3B"/>
<path d="M40.4062 13.9387H31.4489V16.043C31.4489 17.9043 29.9353 19.418 28.0739 19.418C26.2126 19.418 24.6989 17.9043 24.6989 16.043V13.9387H17.4014V16.043C17.4014 17.9043 15.8877 19.418 14.0264 19.418C12.165 19.418 10.6514 17.9043 10.6514 16.043V13.9387H1.59369C1.12794 13.9387 0.840226 14.3057 0.950757 14.7579L6.85532 38.8023C7.21138 40.154 8.63394 41.25 10.0312 41.25H31.9687C33.3676 41.25 34.7885 40.154 35.1463 38.8023L41.0491 14.7579C41.1597 14.3048 40.8728 13.9387 40.4062 13.9387Z" fill="#0D4F3B"/>
</svg>
