<svg width="44" height="44" viewBox="0 0 44 44" fill="none" xmlns="http://www.w3.org/2000/svg">
<g clip-path="url(#clip0)">
<path d="M41.0743 22.5699C40.8973 22.2076 40.8973 21.7922 41.0743 21.4301L42.7154 18.073C43.6291 16.2037 42.9051 13.9758 41.0673 13.0007L37.7664 11.2493C37.4103 11.0604 37.1662 10.7242 37.0965 10.3273L36.4509 6.64669C36.0914 4.59744 34.1958 3.22038 32.1362 3.51179L28.4363 4.03515C28.037 4.09153 27.6421 3.96314 27.3524 3.68289L24.6668 1.08485C23.1714 -0.361817 20.8288 -0.361903 19.3335 1.08485L16.6478 3.68315C16.358 3.96348 15.9631 4.09161 15.5638 4.03541L11.864 3.51205C9.80365 3.22047 7.90873 4.59769 7.54926 6.64695L6.9037 10.3274C6.83401 10.7244 6.58986 11.0605 6.23382 11.2495L2.93298 13.0009C1.09513 13.9759 0.3712 16.204 1.28488 18.0732L2.92585 21.4303C3.10288 21.7925 3.10288 22.2079 2.92585 22.57L1.2848 25.9271C0.371114 27.7963 1.09505 30.0242 2.9329 30.9993L6.23374 32.7507C6.58986 32.9396 6.83401 33.2758 6.9037 33.6728L7.54926 37.3534C7.87651 39.2189 9.47614 40.5272 11.3146 40.527C11.4957 40.527 11.6794 40.5143 11.8641 40.4882L15.5639 39.9648C15.9629 39.9082 16.3581 40.0368 16.6478 40.3171L19.3335 42.9151C20.0813 43.6385 21.0405 44.0002 22.0001 44.0001C22.9594 44 23.9192 43.6384 24.6667 42.9151L27.3524 40.3171C27.6422 40.0368 28.0372 39.9088 28.4363 39.9648L32.1362 40.4882C34.1968 40.7797 36.0914 39.4025 36.4509 37.3533L37.0965 33.6729C37.1662 33.2758 37.4104 32.9397 37.7664 32.7507L41.0673 30.9993C42.9051 30.0243 43.6291 27.7962 42.7154 25.927L41.0743 22.5699ZM39.8778 28.7575L36.577 30.5089C35.5246 31.0674 34.8028 32.0607 34.597 33.2342L33.9514 36.9147C33.8298 37.6081 33.1888 38.0738 32.4916 37.9754L28.7918 37.452C27.6119 37.2849 26.4443 37.6646 25.588 38.493L22.9022 41.0909C22.3964 41.5803 21.6038 41.5803 21.0978 41.0909L18.4122 38.4929C17.6885 37.7928 16.7423 37.4133 15.7545 37.4133C15.5735 37.4133 15.3911 37.4261 15.2084 37.4519L11.5085 37.9753C10.8119 38.0738 10.1704 37.608 10.0487 36.9146L9.40309 33.2341C9.19719 32.0605 8.47549 31.0672 7.42302 30.5088L4.12218 28.7574C3.50034 28.4275 3.25542 27.6738 3.56453 27.0413L5.20559 23.6842C5.72877 22.6138 5.72877 21.3861 5.20559 20.3157L3.56453 16.9585C3.25542 16.3261 3.50034 15.5724 4.12218 15.2425L7.42302 13.4911C8.4754 12.9326 9.19719 11.9393 9.40301 10.7657L10.0486 7.08523C10.1703 6.39189 10.8112 5.92611 11.5084 6.02459L15.2082 6.54795C16.3877 6.71492 17.5557 6.33534 18.412 5.50699L21.0977 2.90895C21.6036 2.41962 22.3962 2.41962 22.9022 2.90895L25.5878 5.50699C26.4441 6.33543 27.6119 6.71492 28.7916 6.54795L32.4914 6.02459C33.1881 5.92602 33.8297 6.39189 33.9513 7.08523L34.5968 10.7658C34.8027 11.9394 35.5244 12.9327 36.5769 13.4911L39.8777 15.2425C40.4996 15.5724 40.7445 16.3261 40.4354 16.9585L38.7943 20.3156C38.2711 21.3859 38.2711 22.6138 38.7943 23.6841L40.4354 27.0412C40.7446 27.6738 40.4997 28.4276 39.8778 28.7575Z" fill="#A24141"/>
<path d="M31.2713 12.7286C30.7759 12.2331 29.9724 12.2331 29.4769 12.7286L12.7287 29.4769C12.2332 29.9724 12.2332 30.7758 12.7287 31.2713C12.9764 31.5191 13.3012 31.643 13.6259 31.643C13.9505 31.643 14.2754 31.5192 14.5231 31.2713L31.2712 14.5232C31.7669 14.0276 31.7669 13.2242 31.2713 12.7286Z" fill="#A24141"/>
<path d="M16.9245 10.5802C14.3591 10.5802 12.272 12.6674 12.272 15.2327C12.272 17.7981 14.3591 19.8853 16.9245 19.8853C19.4899 19.8853 21.5771 17.7981 21.5771 15.2327C21.5771 12.6674 19.4899 10.5802 16.9245 10.5802ZM16.9245 17.3475C15.7584 17.3475 14.8098 16.3988 14.8098 15.2327C14.8098 14.0666 15.7584 13.1179 16.9245 13.1179C18.0906 13.1179 19.0393 14.0666 19.0393 15.2327C19.0392 16.3988 18.0906 17.3475 16.9245 17.3475Z" fill="#A24141"/>
<path d="M27.0754 24.1148C24.51 24.1148 22.4229 26.202 22.4229 28.7673C22.4229 31.3327 24.51 33.4199 27.0754 33.4199C29.6408 33.4199 31.7279 31.3327 31.7279 28.7673C31.7279 26.202 29.6408 24.1148 27.0754 24.1148ZM27.0754 30.8821C25.9093 30.8821 24.9606 29.9334 24.9606 28.7673C24.9606 27.6013 25.9092 26.6526 27.0754 26.6526C28.2415 26.6526 29.1901 27.6013 29.1901 28.7673C29.1901 29.9334 28.2415 30.8821 27.0754 30.8821Z" fill="#A24141"/>
</g>
<defs>
<clipPath id="clip0">
<rect width="44" height="44" fill="white"/>
</clipPath>
</defs>
</svg>
