<svg width="42" height="42" viewBox="0 0 42 42" fill="none" xmlns="http://www.w3.org/2000/svg">
<path fill-rule="evenodd" clip-rule="evenodd" d="M0.166626 20.9998C0.166626 9.49359 9.49371 0.166504 21 0.166504C32.5062 0.166504 41.8333 9.49359 41.8333 20.9998C41.8333 32.4833 32.5431 41.7962 21.0683 41.8331C22.0038 41.829 22.9177 41.7427 23.8197 41.6207V26.5218H29.2113L30.0582 21.0447H23.8197V18.0509C23.8197 15.7759 24.5634 13.7582 26.6916 13.7582H30.1113V8.97904L30.0829 8.97519C29.4706 8.89234 28.2022 8.72071 25.8384 8.72071C20.8238 8.72071 17.8843 11.3686 17.8843 17.402V21.0457H12.7291V26.5228H17.8832V41.577C18.8807 41.7256 19.8911 41.8284 20.9271 41.833C9.45434 41.7937 0.166626 32.4818 0.166626 20.9998ZM20.9271 41.833C20.9513 41.8332 20.9756 41.8332 20.9999 41.8332C21.0227 41.8332 21.0455 41.8332 21.0683 41.8331C21.0456 41.8331 21.0228 41.8332 21 41.8332C20.9757 41.8332 20.9513 41.8331 20.9271 41.833Z" fill="white"/>
</svg>
