<svg width="28" height="34" viewBox="0 0 28 34" fill="none" xmlns="http://www.w3.org/2000/svg">
<path d="M26.0788 7.08333H1.92191C1.01603 7.08333 0.412109 6.51667 0.412109 5.66667C0.412109 4.81667 1.01603 4.25 1.92191 4.25H26.0788C26.9847 4.25 27.5886 4.81667 27.5886 5.66667C27.5886 6.51667 26.9847 7.08333 26.0788 7.08333Z" fill="#0D4F3B"/>
<path d="M26.0788 29.75H1.92191C1.01603 29.75 0.412109 29.1833 0.412109 28.3333C0.412109 27.4833 1.01603 26.9167 1.92191 26.9167H26.0788C26.9847 26.9167 27.5886 27.4833 27.5886 28.3333C27.5886 29.1833 26.9847 29.75 26.0788 29.75Z" fill="#0D4F3B"/>
<path d="M26.0788 18.4167H1.92191C1.01603 18.4167 0.412109 17.85 0.412109 17C0.412109 16.15 1.01603 15.5833 1.92191 15.5833H26.0788C26.9847 15.5833 27.5886 16.15 27.5886 17C27.5886 17.85 26.9847 18.4167 26.0788 18.4167Z" fill="#0D4F3B"/>
</svg>
