<svg width="44" height="43" viewBox="0 0 44 43" fill="none" xmlns="http://www.w3.org/2000/svg">
<g clip-path="url(#clip0)">
<path d="M39.1652 11.6642C37.2751 9.8878 34.6638 9 31.3302 9C30.4076 9 29.4661 9.15396 28.5064 9.46174C27.5464 9.76973 26.6534 10.1853 25.8282 10.708C25.002 11.2306 24.292 11.7214 23.6963 12.1796C23.1013 12.638 22.5357 13.1251 22 13.6405C21.4642 13.1251 20.8987 12.638 20.3036 12.1796C19.7082 11.7214 18.9978 11.2309 18.1718 10.708C17.3458 10.185 16.4529 9.76981 15.4932 9.46174C14.5335 9.15404 13.5921 9 12.6695 9C9.33608 9 6.72463 9.88803 4.83481 11.6642C2.94499 13.4401 2 15.9035 2 19.0546C2 20.0142 2.17513 21.0029 2.52468 22.0193C2.87423 23.0362 3.27257 23.9029 3.71892 24.6189C4.16518 25.3348 4.67125 26.033 5.23675 26.7134C5.80224 27.3937 6.21551 27.8626 6.47562 28.1204C6.73597 28.3782 6.94065 28.5646 7.08943 28.6793L21.0178 41.6129C21.2858 41.8707 21.6131 42 22 42C22.3868 42 22.7144 41.8707 22.9822 41.6129L36.8884 28.7218C40.2963 25.4424 42 22.2197 42 19.0543C42.0001 15.903 41.0552 13.4398 39.1652 11.6642Z" fill="#0D4F3B"/>
</g>
<defs>
<clipPath id="clip0">
<rect width="44" height="43" fill="white"/>
</clipPath>
</defs>
</svg>
