<svg width="42" height="42" viewBox="0 0 42 42" fill="none" xmlns="http://www.w3.org/2000/svg">
<g clip-path="url(#clip0)">
<path d="M12.36 -0.120117C5.4768 -0.120117 -0.119995 5.47668 -0.119995 12.3599V29.6399C-0.119995 36.5231 5.4768 42.1199 12.36 42.1199H29.64C36.5232 42.1199 42.12 36.5231 42.12 29.6399V12.3599C42.12 5.47668 36.5232 -0.120117 29.64 -0.120117H12.36ZM32.52 7.55988C33.576 7.55988 34.44 8.42388 34.44 9.47988C34.44 10.5359 33.576 11.3999 32.52 11.3999C31.464 11.3999 30.6 10.5359 30.6 9.47988C30.6 8.42388 31.464 7.55988 32.52 7.55988ZM21 10.4399C26.8272 10.4399 31.56 15.1727 31.56 20.9999C31.56 26.8271 26.8272 31.5599 21 31.5599C15.1728 31.5599 10.44 26.8271 10.44 20.9999C10.44 15.1727 15.1728 10.4399 21 10.4399ZM21 12.3599C16.2384 12.3599 12.36 16.2383 12.36 20.9999C12.36 25.7615 16.2384 29.6399 21 29.6399C25.7616 29.6399 29.64 25.7615 29.64 20.9999C29.64 16.2383 25.7616 12.3599 21 12.3599Z" fill="white"/>
</g>
<defs>
<clipPath id="clip0">
<rect width="42" height="42" fill="white"/>
</clipPath>
</defs>
</svg>
