<svg width="29" height="30" viewBox="0 0 29 30" fill="none" xmlns="http://www.w3.org/2000/svg">
<path d="M26.0788 5.08333H1.92191C1.01603 5.08333 0.412109 4.51667 0.412109 3.66667C0.412109 2.81667 1.01603 2.25 1.92191 2.25H26.0788C26.9847 2.25 27.5886 2.81667 27.5886 3.66667C27.5886 4.51667 26.9847 5.08333 26.0788 5.08333Z" fill="#0D4F3B"/>
<path d="M26.0788 27.75H1.92191C1.01603 27.75 0.412109 27.1833 0.412109 26.3333C0.412109 25.4833 1.01603 24.9167 1.92191 24.9167H26.0788C26.9847 24.9167 27.5886 25.4833 27.5886 26.3333C27.5886 27.1833 26.9847 27.75 26.0788 27.75Z" fill="#0D4F3B"/>
<path d="M26.0788 16.4167H1.92191C1.01603 16.4167 0.412109 15.85 0.412109 15C0.412109 14.15 1.01603 13.5833 1.92191 13.5833H26.0788C26.9847 13.5833 27.5886 14.15 27.5886 15C27.5886 15.85 26.9847 16.4167 26.0788 16.4167Z" fill="#0D4F3B"/>
</svg>
