<svg width="25" height="25" viewBox="0 0 25 25" fill="none" xmlns="http://www.w3.org/2000/svg">
<g clip-path="url(#clip0)">
<path d="M24.8875 19.9266L24.7631 19.5517C24.4684 18.6757 23.5024 17.7621 22.615 17.5214L19.3305 16.6242C18.4398 16.3819 17.1692 16.7077 16.5176 17.3593L15.3289 18.548C11.0088 17.3807 7.62127 13.993 6.45551 9.67384L7.64427 8.48508C8.29594 7.83341 8.62173 6.56454 8.37941 5.67384L7.48379 2.38776C7.24147 1.49869 6.3262 0.532705 5.4519 0.241239L5.07697 0.115179C4.201 -0.176287 2.95173 0.11848 2.3001 0.770101L0.521965 2.54986C0.204302 2.86585 0.00127589 3.76964 0.00127589 3.77294C-0.0609155 9.41837 2.15272 14.8575 6.14607 18.8509C10.1296 22.8344 15.5483 25.0448 21.1774 24.9973C21.2068 24.9973 22.1368 24.7976 22.4545 24.4815L24.2326 22.7034C24.8842 22.0518 25.1789 20.8026 24.8875 19.9266Z" fill="#0D4F3B"/>
</g>
<defs>
<clipPath id="clip0">
<rect width="25" height="25" fill="white"/>
</clipPath>
</defs>
</svg>
