<svg width="40" height="40" viewBox="0 0 40 40" fill="none" xmlns="http://www.w3.org/2000/svg">
<g clip-path="url(#clip0)">
<path d="M37.7286 17.0417C37.1113 16.5878 36.3443 16.0208 36.2434 15.6452C36.1338 15.2347 36.5251 14.3304 36.8417 13.6052C37.3826 12.3599 37.9426 11.0712 37.3217 9.99643C36.6939 8.90771 35.2834 8.74948 33.9217 8.59646C33.1443 8.50948 32.1773 8.40171 31.8886 8.11124C31.5981 7.82258 31.4904 6.85557 31.4034 6.07818C31.2504 4.71644 31.092 3.30774 30.0034 2.67815C29.0573 2.12861 27.6556 2.60861 26.3947 3.15815C25.6973 3.46076 24.9703 3.74943 24.353 3.75644C23.9773 3.65731 23.4121 2.88864 22.9564 2.27119C22.1722 1.20693 21.2834 0 20 0C18.7182 0 17.8278 1.20693 17.0434 2.26956C16.5878 2.88693 16.0225 3.65568 15.4903 3.77388C15.0225 3.77388 14.3025 3.46084 13.6052 3.15823C12.3408 2.60869 10.9374 2.13391 9.99823 2.67823C8.90779 3.30782 8.74956 4.71652 8.59646 6.07826C8.51127 6.85565 8.40171 7.82086 8.11296 8.11133C7.82249 8.40179 6.85557 8.50956 6.07989 8.59654C4.71644 8.74956 3.30595 8.90959 2.67815 9.99652C2.05728 11.0696 2.61725 12.3583 3.15815 13.6052C3.4747 14.3305 3.86771 15.2348 3.75815 15.6452C3.65731 16.0209 2.88856 16.5879 2.27291 17.0418C1.20693 17.8261 0 18.7165 0 20C0 21.2834 1.20693 22.1739 2.27128 22.9582C2.88864 23.4121 3.6556 23.9791 3.75652 24.3548C3.86608 24.7652 3.47478 25.6695 3.15823 26.3948C2.61734 27.64 2.05736 28.9287 2.67823 30.0035C3.30603 31.0922 4.71652 31.2504 6.07826 31.4035C6.85565 31.4904 7.82258 31.5982 8.11133 31.8887C8.40179 32.1773 8.50956 33.1444 8.59654 33.9217C8.74956 35.2835 8.90787 36.6922 9.99652 37.3218C10.9391 37.8696 12.3408 37.3913 13.6052 36.8418C14.3027 36.5392 15.0156 36.233 15.6469 36.2435C16.0226 36.3426 16.5878 37.1113 17.0435 37.7287C17.8278 38.7931 18.7166 40 20 40C21.2818 40 22.1722 38.7931 22.9548 37.7304C23.4104 37.1131 23.9757 36.3443 24.5079 36.2261C24.9774 36.2261 25.6974 36.5392 26.3931 36.8418C27.6592 37.3931 29.0609 37.8679 30 37.3235C31.0904 36.6939 31.2486 35.2852 31.4017 33.9217C31.4869 33.1444 31.5965 32.1791 31.8853 31.8887C32.1757 31.5982 33.1426 31.4904 33.9183 31.4035C35.2818 31.2504 36.6923 31.0904 37.3201 30.0035C37.9426 28.9304 37.3827 27.6417 36.8401 26.3948C36.5235 25.6695 36.1322 24.7669 36.2418 24.3548C36.3426 23.9791 37.1114 23.4121 37.727 22.9582C38.7931 22.1739 40.0001 21.2834 40.0001 20C40.0001 18.7165 38.793 17.8261 37.7286 17.0417ZM36.6991 21.5547C35.7756 22.2347 34.8208 22.9373 34.5635 23.9009C34.2974 24.8991 34.7809 26.0104 35.2487 27.0852C35.5478 27.7739 36 28.8138 35.8191 29.1287C35.6295 29.4574 34.4869 29.5861 33.7286 29.6713C32.5739 29.8017 31.3791 29.9357 30.6591 30.6557C29.9391 31.3757 29.8051 32.5704 29.6765 33.7252C29.5913 34.4817 29.4626 35.626 29.1322 35.8157C29.0817 35.8452 28.9982 35.8522 28.9374 35.8522C28.4852 35.8522 27.7757 35.5426 27.0888 35.2452C26.0105 34.7774 24.8313 34.3113 23.9062 34.5618C22.9409 34.8191 22.2383 35.7739 21.5566 36.6974C21.0975 37.32 20.4036 38.2609 20.0001 38.2609C19.5967 38.2609 18.901 37.3201 18.4436 36.6974C17.7637 35.7756 17.061 34.8208 16.0958 34.5635C15.9063 34.513 15.7028 34.4869 15.4889 34.4869C14.6593 34.4869 13.7706 34.873 12.9115 35.2487C12.2263 35.5461 11.5167 35.8556 11.0628 35.8556C11.0019 35.8556 10.9184 35.8487 10.8681 35.8191C10.5377 35.6277 10.4106 34.4851 10.3255 33.7286C10.195 32.5739 10.0611 31.3791 9.34108 30.6591C8.62279 29.9391 7.4263 29.8051 6.27154 29.6747C5.51674 29.5895 4.37242 29.4608 4.18288 29.1321C4.00027 28.8191 4.45418 27.7773 4.75328 27.0886C5.22114 26.0138 5.70456 24.9025 5.43847 23.9043C5.17932 22.9408 4.22453 22.2382 3.30285 21.5582C2.68027 21.0973 1.73935 20.4034 1.73935 19.9999C1.73935 19.5963 2.68019 18.9025 3.30285 18.4416C4.22633 17.7616 5.18111 17.059 5.43847 16.0955C5.70456 15.0972 5.22106 13.9859 4.75328 12.9112C4.45589 12.2225 4.00198 11.1825 4.18288 10.8677C4.37421 10.539 5.51682 10.4102 6.27334 10.3268C7.42809 10.1963 8.62287 10.0624 9.34287 9.34238C10.0629 8.62239 10.1968 7.4276 10.3272 6.27285C10.4107 5.51633 10.5394 4.37372 10.8699 4.18239C10.9203 4.1528 11.0038 4.14587 11.0646 4.14587C11.5168 4.14587 12.2264 4.4554 12.9116 4.75459C13.9899 5.22244 15.1672 5.69021 16.0942 5.43807C17.0594 5.1807 17.762 4.22592 18.4437 3.30244C18.9028 2.67986 19.5968 1.73894 20.0002 1.73894C20.4037 1.73894 21.0994 2.67978 21.5585 3.30065C22.2385 4.22242 22.9411 5.1772 23.9063 5.43456C24.8246 5.67978 26.0106 5.22065 27.0889 4.75108C27.7741 4.45369 28.4837 4.14415 28.9376 4.14415C28.9985 4.14415 29.082 4.15108 29.1323 4.18068C29.4628 4.37201 29.5898 5.51462 29.675 6.27114C29.8054 7.42589 29.9393 8.62067 30.6593 9.34067C31.3776 10.0607 32.5741 10.1946 33.7289 10.325C34.4837 10.4102 35.628 10.539 35.8175 10.8677C36.0001 11.1807 35.5462 12.2225 35.2471 12.9112C34.7793 13.9859 34.2958 15.0972 34.5619 16.0955C34.8211 17.059 35.7759 17.7615 36.6976 18.4416C37.3201 18.9024 38.2611 19.5963 38.2611 19.9999C38.2611 20.4034 37.32 21.0974 36.6991 21.5547Z" fill="#565F76"/>
<path d="M14.7825 15.6522C14.3025 15.6522 13.9129 16.0418 13.9129 16.5218V20.8695L10.2608 16C10.0364 15.7009 9.64341 15.5774 9.29034 15.6974C8.93556 15.8157 8.69556 16.1478 8.69556 16.5218V23.4782C8.69556 23.9582 9.08515 24.3478 9.56515 24.3478C10.0451 24.3478 10.4347 23.9582 10.4347 23.4782V19.1304L14.0869 24C14.2539 24.2226 14.5147 24.3478 14.7825 24.3478C14.8747 24.3478 14.9669 24.3339 15.0573 24.3026C15.4121 24.1843 15.6521 23.8522 15.6521 23.4782V16.5218C15.6521 16.0418 15.2625 15.6522 14.7825 15.6522Z" fill="#565F76"/>
<path d="M21.7391 22.6087H19.1304V17.3913H21.7391C22.2191 17.3913 22.6087 17.0017 22.6087 16.5217C22.6087 16.0417 22.2191 15.6522 21.7391 15.6522H18.2608C17.7808 15.6522 17.3912 16.0418 17.3912 16.5218V23.4783C17.3912 23.9583 17.7808 24.3479 18.2608 24.3479H21.7391C22.2191 24.3479 22.6087 23.9583 22.6087 23.4783C22.6087 22.9983 22.2191 22.6087 21.7391 22.6087Z" fill="#565F76"/>
<path d="M21.7391 19.1305H18.2608C17.7808 19.1305 17.3912 19.5201 17.3912 20.0001C17.3912 20.4801 17.7808 20.8696 18.2608 20.8696H21.7391C22.2191 20.8696 22.6087 20.48 22.6087 20C22.6087 19.52 22.2191 19.1305 21.7391 19.1305Z" fill="#565F76"/>
<path d="M32.3826 15.6782C31.9131 15.5617 31.4435 15.8435 31.3287 16.3112L30.3148 20.3704L29.5201 17.986C29.2836 17.2765 28.1079 17.2765 27.8697 17.986L27.0749 20.3704L26.061 16.3112C25.9445 15.8434 25.4645 15.5599 25.0071 15.6782C24.5411 15.7947 24.2593 16.2661 24.3741 16.7321L26.1132 23.6886C26.2071 24.0626 26.5375 24.3321 26.9236 24.346C27.3602 24.3634 27.661 24.1182 27.7828 23.7529L28.6958 21.0103L29.6089 23.7529C29.7289 24.1094 30.0611 24.3477 30.4349 24.3477C30.4454 24.3477 30.4575 24.3477 30.4662 24.346C30.8523 24.3321 31.1827 24.0643 31.2766 23.6886L33.0157 16.7321C33.1322 16.2661 32.8504 15.7947 32.3826 15.6782Z" fill="#565F76"/>
</g>
<defs>
<clipPath id="clip0">
<rect width="40" height="40" fill="white"/>
</clipPath>
</defs>
</svg>
