<svg width="42" height="42" viewBox="0 0 42 42" fill="none" xmlns="http://www.w3.org/2000/svg">
<path fill-rule="evenodd" clip-rule="evenodd" d="M20.9232 41.9227C32.3798 41.9227 41.6671 32.564 41.6671 21.0194C41.6671 9.4749 32.3798 0.116211 20.9232 0.116211C9.46668 0.116211 0.179321 9.4749 0.179321 21.0194C0.179321 32.564 9.46668 41.9227 20.9232 41.9227ZM20.9233 21.4259C24.3422 21.4259 27.1272 18.6195 27.1272 15.1743C27.1272 11.7291 24.3422 8.92269 20.9233 8.92269C17.5044 8.92269 14.7193 11.7291 14.7193 15.1743C14.7193 18.6195 17.5044 21.4259 20.9233 21.4259ZM20.9233 12.5808C22.3446 12.5808 23.4971 13.742 23.4971 15.1743C23.4971 16.6066 22.3446 17.7678 20.9233 17.7678C19.5019 17.7678 18.3495 16.6066 18.3495 15.1743C18.3495 13.742 19.5019 12.5808 20.9233 12.5808ZM27.0504 25.0066C25.9172 25.7227 24.7071 26.2259 23.4394 26.5162L26.9352 30.0195C27.6458 30.7356 27.6458 31.8969 26.9352 32.613C26.2245 33.3291 25.072 33.3291 24.3614 32.613L20.9425 29.1679L17.5236 32.613C17.1778 32.9808 16.6977 33.1549 16.2367 33.1549C15.7757 33.1549 15.3147 32.9614 14.9498 32.613C14.2391 31.8969 14.2391 30.7356 14.9498 30.0195L18.4263 26.5162C17.1586 26.2259 15.9294 25.7227 14.8153 25.0066C13.951 24.4646 13.7013 23.3227 14.2391 22.4711C14.7769 21.6001 15.9102 21.3485 16.7553 21.8904C19.2906 23.4969 22.5751 23.4969 25.1105 21.8904C25.9748 21.3485 27.0888 21.6195 27.6266 22.4711C28.1644 23.3421 27.8955 24.4646 27.0504 25.0066Z" fill="white"/>
</svg>
