<svg width="21" height="20" viewBox="0 0 21 20" fill="none" xmlns="http://www.w3.org/2000/svg">
<path d="M19.5117 2.95318C18.5194 1.98426 17.1485 1.5 15.3983 1.5C14.914 1.5 14.4196 1.58398 13.9159 1.75186C13.4119 1.91986 12.943 2.14651 12.5098 2.43165C12.076 2.71671 11.7033 2.98441 11.3905 3.23434C11.0782 3.48435 10.7812 3.75004 10.5 4.0312C10.2187 3.75004 9.92179 3.48435 9.60939 3.23434C9.29679 2.98441 8.92385 2.71688 8.49016 2.43165C8.05655 2.14639 7.58777 1.9199 7.0839 1.75186C6.58006 1.58402 6.08583 1.5 5.60149 1.5C3.85143 1.5 2.48043 1.98438 1.48827 2.95318C0.496118 3.9219 0 5.26557 0 6.98431C0 7.50776 0.0919421 8.04702 0.275457 8.60142C0.458972 9.15611 0.668099 9.62884 0.902429 10.0194C1.13672 10.4099 1.40241 10.7907 1.69929 11.1618C1.99617 11.5329 2.21314 11.7887 2.3497 11.9293C2.48638 12.0699 2.59384 12.1716 2.67195 12.2342L9.98434 19.2889C10.125 19.4295 10.2969 19.5 10.5 19.5C10.7031 19.5 10.875 19.4295 11.0156 19.2889L18.3164 12.2574C20.1055 10.4686 21 8.71077 21 6.98414C21 5.26528 20.5039 3.92173 19.5117 2.95318Z" fill="#CFCFCF"/>
</svg>
