<svg width="21" height="21" viewBox="0 0 21 21" fill="none" xmlns="http://www.w3.org/2000/svg">
<path d="M6.54919 8.49023C7.01494 8.49023 7.39294 8.11223 7.39294 7.64648V4.35586C7.39294 2.88478 8.5898 1.6875 10.0609 1.6875C11.532 1.6875 12.7292 2.88478 12.7292 4.35586V7.64648C12.7292 8.11223 13.1068 8.49023 13.573 8.49023C14.0387 8.49023 14.4167 8.11223 14.4167 7.64648V4.35586C14.4172 1.95413 12.463 0 10.0609 0C7.65957 0 5.70544 1.95413 5.70544 4.35586V7.64648C5.70544 8.11223 6.08344 8.49023 6.54919 8.49023Z" fill="#CFCFCF"/>
<path d="M19.7395 6.59436H15.2609V7.64652C15.2609 8.57717 14.5041 9.33402 13.5734 9.33402C12.6428 9.33402 11.8859 8.57717 11.8859 7.64652V6.59436H8.23711V7.64652C8.23711 8.57717 7.48027 9.33402 6.54961 9.33402C5.61896 9.33402 4.86211 8.57717 4.86211 7.64652V6.59436H0.333285C0.10041 6.59436 -0.0434491 6.77788 0.0118165 7.004L2.9641 19.0262C3.14213 19.702 3.85341 20.25 4.55203 20.25H15.5208C16.2203 20.25 16.9307 19.702 17.1096 19.0262L20.061 7.004C20.1163 6.77745 19.9728 6.59436 19.7395 6.59436Z" fill="#CFCFCF"/>
</svg>
