<svg width="43" height="42" viewBox="0 0 43 42" fill="none" xmlns="http://www.w3.org/2000/svg">
<g clip-path="url(#clip0)">
<path fill-rule="evenodd" clip-rule="evenodd" d="M28.2299 -0.412842H14.7702C2.48629 -0.412842 -0.422241 2.43089 -0.422241 14.4411V27.601C-0.422241 39.6112 2.48629 42.4549 14.7702 42.4549H28.2299C40.5138 42.4549 43.4223 39.6112 43.4223 27.601V14.4411C43.4223 2.43089 40.4828 -0.412842 28.2299 -0.412842ZM34.9752 30.1724H31.7882C30.5814 30.1724 30.2101 29.2346 28.0442 27.0867C26.1568 25.3018 25.3213 25.0597 24.8572 25.0597C24.2074 25.0597 24.0218 25.2413 24.0218 26.1186V28.9321C24.0218 29.6884 23.7742 30.1422 21.7321 30.1422C18.3594 30.1422 14.6155 28.1455 11.9854 24.4244C8.02487 18.979 6.94191 14.8949 6.94191 14.0478C6.94191 13.5941 7.12756 13.1705 8.02487 13.1705H11.2119C12.0164 13.1705 12.3258 13.5335 12.6352 14.3806C14.2132 18.8277 16.8433 22.7303 17.9262 22.7303C18.3285 22.7303 18.5141 22.5488 18.5141 21.5505V16.9521C18.3904 14.8344 17.2455 14.6529 17.2455 13.8966C17.2455 13.5335 17.5549 13.1705 18.05 13.1705H23.0626C23.7433 13.1705 23.9908 13.5335 23.9908 14.3201V20.5219C23.9908 21.1874 24.3003 21.4294 24.4859 21.4294C24.8881 21.4294 25.2285 21.1874 25.9711 20.4614C28.2608 17.9504 29.9007 14.0781 29.9007 14.0781C30.1173 13.6243 30.4886 13.2008 31.2931 13.2008H34.4801C35.4393 13.2008 35.6559 13.6848 35.4393 14.3504C35.0371 16.1655 31.1384 21.5505 31.1384 21.5505C30.798 22.095 30.6743 22.337 31.1384 22.9421C31.4788 23.3959 32.5927 24.3337 33.3353 25.1808C34.6967 26.6934 35.7487 27.964 36.0272 28.8413C36.3366 29.7186 35.8725 30.1724 34.9752 30.1724Z" fill="white"/>
</g>
<defs>
<clipPath id="clip0">
<rect width="43" height="42" fill="white"/>
</clipPath>
</defs>
</svg>
